<svg xmlns="http://www.w3.org/2000/svg" viewBox="0 0 90 90"><title>texting</title><g id="texting-flat"><circle id="label" cx="45" cy="45" r="45" fill="#ffca28"/><g id="shadow"><path d="M89.65,45.83c-.06-.06-.11-.12-.18-.18s-.11-.12-.18-.18-.11-.12-.18-.18-.11-.12-.18-.18-.11-.12-.18-.18-.11-.12-.18-.18-.11-.12-.18-.18-.11-.12-.18-.18-.11-.12-.18-.18-.11-.12-.18-.18-.11-.12-.18-.18-.11-.12-.18-.18-.11-.12-.18-.18-.11-.12-.18-.18-.11-.12-.18-.18-.11-.12-.18-.18-.11-.12-.18-.18-.11-.12-.18-.18-.11-.12-.18-.18-.11-.12-.18-.18-.11-.12-.18-.18-.11-.12-.18-.18-.11-.12-.18-.18-.11-.12-.18-.18-.11-.12-.18-.18-.11-.12-.18-.18-.11-.12-.18-.18-.11-.12-.18-.18-.11-.12-.18-.18-.11-.12-.18-.18-.11-.12-.18-.18-.11-.12-.18-.18-.11-.12-.18-.18-.11-.12-.18-.18-.11-.12-.18-.18-.11-.12-.18-.18-.11-.12-.18-.18-.11-.12-.18-.18-.11-.12-.18-.18-.11-.12-.18-.18-.11-.12-.18-.18-.11-.12-.18-.18-.11-.12-.18-.18-.11-.12-.18-.18-.11-.12-.18-.18-.11-.12-.18-.18-.11-.12-.18-.18-.11-.12-.18-.18-.11-.12-.18-.18-.11-.12-.18-.18-.11-.12-.18-.18-.11-.12-.18-.18-.11-.12-.18-.18S80,36.2,80,36.15s-.11-.12-.18-.18-.11-.12-.18-.18-.11-.12-.18-.18-.11-.12-.18-.18-.11-.12-.18-.18-.11-.12-.18-.18-.11-.12-.18-.18-.11-.12-.18-.18-.11-.12-.18-.18-.11-.12-.18-.18-.11-.12-.18-.18-.11-.12-.18-.18-.11-.12-.18-.18-.11-.12-.18-.18-.11-.12-.18-.18-.11-.12-.18-.18-.11-.12-.18-.18-.11-.12-.18-.18-.11-.12-.18-.18-.11-.12-.18-.18-.11-.12-.18-.18-.11-.12-.18-.18-.11-.12-.18-.18-.11-.12-.18-.18-.11-.12-.18-.18-.11-.12-.18-.18-.11-.12-.18-.18-.11-.12-.18-.18-.11-.12-.18-.18-.11-.12-.18-.18-.11-.12-.18-.18-.11-.12-.18-.18-.11-.12-.18-.18-.11-.12-.18-.18-.11-.12-.18-.18-.11-.12-.18-.18-.11-.12-.18-.18-.11-.12-.18-.18-.11-.12-.18-.18S72.86,29,72.8,29s-.11-.12-.18-.18-.11-.12-.18-.18-.11-.12-.18-.18-.11-.12-.18-.18-.11-.12-.18-.18-.11-.12-.18-.18-.11-.12-.18-.18-.11-.12-.18-.18-.11-.12-.18-.18-.11-.12-.18-.18-.11-.12-.18-.18-.11-.12-.18-.18-.11-.12-.18-.18-.11-.12-.18-.18-.11-.12-.18-.18-.11-.12-.18-.18-.11-.12-.18-.18-.11-.12-.18-.18-.11-.12-.18-.18-.11-.12-.18-.18-.11-.12-.18-.18-.11-.12-.18-.18-.11-.12-.18-.18-.11-.12-.18-.18-.11-.12-.18-.18-.11-.12-.18-.18-.11-.12-.18-.18a4.32,4.32,0,0,0-3-1.13H36.67c-2.25,0-4.08,1.31-4.08,3.6v5.1H25.08A4.16,4.16,0,0,0,21,35.89V53.63a4.14,4.14,0,0,0,1.3,3l.18.18.18.18.18.18.18.18.18.18.18.18.18.18.18.18.18.18.18.18.18.18.18.18.18.18.18.18.18.18.18.18.18.18.18.18.18.18.18.18.18.18.18.18.18.18.18.18.18.18.18.18.18.18.18.18.18.18.18.18.18.18.18.18.18.18.18.18.18.18.18.18.18.18.18.18.18.18.18.18.18.18.18.18.18.18.18.18.18.18.18.18.18.18.18.18,0,0V67l.18-.2v.38l.18-.2v.38l.18-.2v.38l.18-.2v.38l.18-.2v.38l.18-.2v.38l.18-.2v.38l.18-.2v.38l.18-.2v.38l.18-.2v.38l.18-.2V69l.18-.2v.38l.18-.2v.38l.18-.2v.38l.18-.2v.38l.18-.2v.38l.18-.2V70l.18-.2v.38l.18-.2v.38l.18-.2v.38l.18-.2v.38l.18-.2v.38l.18-.2v.38l.18-.2v.38l.18-.2v.38l.18-.2v.38l.18-.2v.38l.18-.2V72l.18-.2v.38l.18-.2v.38l.18-.2v.38l.18-.2v.38l.18-.2v.38l.18-.2v.38l.18-.2v.38l.18-.2v.38l.18-.2v.38l.18-.2v.38l.18-.2V74l.18-.2v.38l.18-.2v.38l.18-.2v.38l.18-.2v.38l.18-.2v.38l.18-.2v.38l.18-.2v.38l.18-.2v.38l.18-.2v.38l.18-.2v.38l.18-.2V76l.18-.2v.38l.18-.2v.38l.18-.2v.38l.18-.2v.38l.18-.2v.38l.18-.2V77l.18-.2v.38l.18-.2v.38l.18-.2v.38l.18-.2v.38l.18-.2v.38l.18-.2v.38l.18-.2v.38l.18-.2v.38l.18-.2v.38l.18-.2v.38l.18-.2V79l.18-.2v.38l.18-.2v.38l.18-.2v.38l.18-.2v.38l.18-.2v.38l.18-.2v.38l.18-.2v.38l.18-.2v.38l.18-.2v.38l.18-.2v.38l.18-.2V81l.18-.2v.38l.18-.2v.38l.18-.2v.38l.18-.2v.38l.18-.2v.38l.18-.2v.38l.18-.2v.38l.18-.2v.38l.18-.2v.38l.18-.2v.38l.18-.2V83l.18-.2v.38l.18-.2v.38l.18-.2v.38l.18-.2v.38l.18-.2v.38l.18-.2V84l.18-.2v.38l.18-.2v.38l.18-.2v.38l.18-.2v.38l.18-.2v.38l.18-.2v.38l.18-.2v.38l.18-.2v.38l.18-.2v.38l.18-.2v.38l.18-.2V86l.18-.2v.38l.18-.2v.38l.18-.2v.38l.18-.2v.38l.18-.2v.38l.18-.2v.38l.18-.2v.38l.18-.2v.38l.18-.2v.38l.18-.2v.38l.18-.2V88l.18-.2v.38l.18-.2v.38l.18-.2v.38l.18-.2v.38l.18-.2v.38l.18-.2v.38l.18-.2v.38l.18-.2v.18A45,45,0,0,0,90,46.15L89.83,46C89.77,45.95,89.72,45.88,89.65,45.83Z" fill="#ebba25"/></g><g id="texting"><path d="M39.21,41H28.45a.92.92,0,0,1,0-1.83H39.21a.92.92,0,0,1,0,1.83Z" fill="#4a374f"/><path d="M50,46H28.45a.92.92,0,0,1,0-1.83H50A.92.92,0,0,1,50,46Z" fill="#4a374f"/><path d="M50,51.07H28.45a.92.92,0,0,1,0-1.83H50a.92.92,0,0,1,0,1.83Z" fill="#4a374f"/><path d="M64.92,23H36.67c-2.25,0-4.08,1.31-4.08,3.6v5.14l20.75,0a4.11,4.11,0,0,1,4.08,4.14V51.31l5.79,6.46V48.54h1.71A4.11,4.11,0,0,0,69,44.4V26.66C69,24.37,67.17,23,64.92,23Z" fill="#3bafda"/><path d="M57.41,35.83V53.57a4.11,4.11,0,0,1-4.08,4.14l-14.13.06L30.93,67V57.77H25.08A4.11,4.11,0,0,1,21,53.63V35.89a4.16,4.16,0,0,1,4.08-4.2H53.33A4.11,4.11,0,0,1,57.41,35.83Z" fill="#fff"/><ellipse cx="28.76" cy="44.73" rx="2.41" ry="2.44" fill="#434a54"/><ellipse cx="39.21" cy="44.73" rx="2.41" ry="2.44" fill="#434a54"/><ellipse cx="49.65" cy="44.73" rx="2.41" ry="2.44" fill="#434a54"/></g></g></svg>